<svg xmlns="http://www.w3.org/2000/svg" viewBox="0 0 96 96" role="img" aria-labelledby="title">
  <title id="title">棉棒圖示</title>
  <defs>
    <linearGradient id="stick" x1="22" x2="74" y1="73" y2="21" gradientUnits="userSpaceOnUse">
      <stop stop-color="#8A68D8"/>
      <stop offset="1" stop-color="#D7C8FF"/>
    </linearGradient>
    <filter id="shadow" x="-15%" y="-15%" width="130%" height="135%">
      <feDropShadow dx="0" dy="5" stdDeviation="3" flood-color="#624AA0" flood-opacity=".24"/>
    </filter>
  </defs>
  <ellipse cx="49" cy="82" rx="30" ry="7" fill="#624AA0" opacity=".17"/>
  <g filter="url(#shadow)">
    <path d="M27 69 69 27" stroke="url(#stick)" stroke-width="10" stroke-linecap="round"/>
    <path d="M19 75c-5-5-5-13 0-18s13-5 18 0 5 13 0 18-13 5-18 0Z" fill="#FFF7EA"/>
    <path d="M59 39c-5-5-5-13 0-18s13-5 18 0 5 13 0 18-13 5-18 0Z" fill="#FFF7EA"/>
    <path d="M23 59c4-2 9-1 12 2M61 24c4-2 9-1 12 2" stroke="#E6D7C2" stroke-width="4" stroke-linecap="round"/>
    <path d="M32 64 64 32" stroke="#FFFFFF" stroke-width="4" stroke-linecap="round" opacity=".6"/>
  </g>
</svg>
