<svg xmlns="http://www.w3.org/2000/svg" viewBox="0 0 96 96" role="img" aria-labelledby="title">
  <title id="title">手套圖示</title>
  <rect width="96" height="96" rx="22" fill="#F8F0D8"/>
  <path d="M27 47c0-5 7-6 9-1V28c0-5 8-5 8 0v18-23c0-5 9-5 9 0v23-19c0-5 8-5 8 0v23l3-7c2-5 9-3 8 3l-5 20c-3 12-11 19-22 19-12 0-21-9-21-22V47Z" fill="#E8C568"/>
  <path d="M32 69h32" stroke="#27474D" stroke-width="6" stroke-linecap="round"/>
  <path d="M36 47v16M44 45v18M53 46v17M61 51v12" stroke="#FFF8E6" stroke-width="5" stroke-linecap="round"/>
  <path d="M25 47c0 7 3 12 9 16" stroke="#C59A43" stroke-width="4" stroke-linecap="round"/>
</svg>
