<svg xmlns="http://www.w3.org/2000/svg" viewBox="0 0 96 96" role="img" aria-labelledby="title">
  <title id="title">手套占位圖示</title>
  <rect width="96" height="96" rx="24" fill="#F8F0D7"/>
  <path d="M30 45c0-5 7-5 8 0V28c0-5 8-5 8 0v16-20c0-5 8-5 8 0v21-17c0-5 8-5 8 0v22l2-5c2-4 8-2 7 3l-5 18c-3 10-10 16-20 16-11 0-19-8-19-19V45Z" fill="#E9C96F"/>
  <path d="M32 68h31" stroke="#31555C" stroke-width="5" stroke-linecap="round"/>
  <path d="M38 45v17M46 44v18M54 45v17M62 50v12" stroke="#FFF8E8" stroke-width="4" stroke-linecap="round"/>
</svg>
