<svg xmlns="http://www.w3.org/2000/svg" viewBox="0 0 96 96" role="img" aria-labelledby="title">
  <title id="title">手套圖示</title>
  <defs>
    <linearGradient id="glove" x1="25" x2="70" y1="14" y2="86" gradientUnits="userSpaceOnUse">
      <stop stop-color="#FFF1A3"/>
      <stop offset=".62" stop-color="#F3C94E"/>
      <stop offset="1" stop-color="#D9922A"/>
    </linearGradient>
    <filter id="shadow" x="-15%" y="-15%" width="130%" height="135%">
      <feDropShadow dx="0" dy="5" stdDeviation="3" flood-color="#8C5B22" flood-opacity=".25"/>
    </filter>
  </defs>
  <ellipse cx="49" cy="85" rx="31" ry="7" fill="#8C5B22" opacity=".2"/>
  <g filter="url(#shadow)">
    <path d="M35 18c0-4 3-7 7-7s7 3 7 7v26h2V15c0-4 3-7 7-7s7 3 7 7v31h2V25c0-4 3-7 7-7s7 3 7 7v32c0 19-13 31-31 31H39c-13 0-23-10-23-23V48c0-5 4-8 8-8 5 0 8 3 8 8v8h3V18Z" fill="url(#glove)"/>
    <path d="M22 63c10 0 17 6 21 15" fill="none" stroke="#C77E23" stroke-width="6" stroke-linecap="round"/>
    <path d="M42 16v29M58 14v31M74 24v26" stroke="#FFF8C7" stroke-width="4.5" stroke-linecap="round" opacity=".75"/>
    <path d="M26 43c5 1 9 5 10 11" stroke="#FFF8C7" stroke-width="4.5" stroke-linecap="round" opacity=".7"/>
    <path d="M35 73h32" stroke="#AA6D21" stroke-width="6" stroke-linecap="round" opacity=".45"/>
  </g>
</svg>
