<svg xmlns="http://www.w3.org/2000/svg" viewBox="0 0 96 96" role="img" aria-labelledby="title">
  <title id="title">藥膏管圖示</title>
  <defs>
    <linearGradient id="tube" x1="18" x2="76" y1="76" y2="18" gradientUnits="userSpaceOnUse">
      <stop stop-color="#FF8F91"/>
      <stop offset=".58" stop-color="#FFD2C5"/>
      <stop offset="1" stop-color="#FFF7E8"/>
    </linearGradient>
    <linearGradient id="cap" x1="55" x2="81" y1="41" y2="15" gradientUnits="userSpaceOnUse">
      <stop stop-color="#48AFC7"/>
      <stop offset="1" stop-color="#B9EFF3"/>
    </linearGradient>
    <filter id="shadow" x="-15%" y="-15%" width="130%" height="135%">
      <feDropShadow dx="0" dy="5" stdDeviation="3" flood-color="#8A4A72" flood-opacity=".22"/>
    </filter>
  </defs>
  <path d="M18 71 57 32l25 25-39 24c-7 7-18 7-25 0-3-3-3-7 0-10Z" fill="#C86D88" opacity=".25"/>
  <g filter="url(#shadow)">
    <path d="M19 66 55 30l25 25-36 36c-7 4-18 2-24-4l-4-4c-5-6-3-13 3-17Z" fill="url(#tube)"/>
    <path d="M54 29 65 18c4-4 11-4 15 0l2 2c4 4 4 11 0 15L70 47 54 29Z" fill="url(#cap)"/>
    <path d="M49 36 65 52" stroke="#7B3D65" stroke-width="5.5" stroke-linecap="round"/>
    <path d="M30 66c5-5 13-5 18 0l5 5-8 8c-4 4-10 4-14 0l-2-2c-3-3-3-8 1-11Z" fill="#FFF8ED"/>
    <path d="M34 70h15" stroke="#EE6F7B" stroke-width="5" stroke-linecap="round"/>
    <path d="M67 20 79 32" stroke="#FFFFFF" stroke-width="4" stroke-linecap="round" opacity=".8"/>
    <path d="M25 63 55 33" stroke="#FFFFFF" stroke-width="5" stroke-linecap="round" opacity=".55"/>
  </g>
</svg>
