<svg xmlns="http://www.w3.org/2000/svg" viewBox="0 0 96 96" role="img" aria-labelledby="title">
  <title id="title">發紅甲溝炎手指</title>
  <defs>
    <linearGradient id="skin" x1="37" x2="63" y1="9" y2="88" gradientUnits="userSpaceOnUse">
      <stop stop-color="#FFD4BE"/>
      <stop offset=".62" stop-color="#F2A48F"/>
      <stop offset="1" stop-color="#D9786C"/>
    </linearGradient>
    <radialGradient id="redness" cx="50%" cy="58%" r="40%">
      <stop stop-color="#FF6F76" stop-opacity=".9"/>
      <stop offset="1" stop-color="#E34455" stop-opacity=".14"/>
    </radialGradient>
    <filter id="shadow" x="-15%" y="-15%" width="130%" height="135%">
      <feDropShadow dx="0" dy="5" stdDeviation="3" flood-color="#8A3D49" flood-opacity=".27"/>
    </filter>
  </defs>
  <ellipse cx="48" cy="85" rx="28" ry="7" fill="#8A3D49" opacity=".2"/>
  <g filter="url(#shadow)">
    <path d="M35 21c0-8 6-14 14-14s14 6 14 14v45c0 15-10 25-25 25H24c-7 0-12-5-12-12s5-12 12-12h8c2 0 3-1 3-3V21Z" fill="url(#skin)"/>
    <path d="M38 21c0-6 5-10 11-10s11 4 11 10v14H38V21Z" fill="#FFE1D1"/>
    <circle cx="49" cy="52" r="18" fill="url(#redness)"/>
    <path d="M36 41c9-6 19-6 27 0" stroke="#E44F62" stroke-width="7" stroke-linecap="round"/>
    <path d="M26 72h20" stroke="#9D5D55" stroke-width="5" stroke-linecap="round" opacity=".65"/>
    <path d="M69 33c4 5 6 11 6 17M22 36c-4 5-6 11-6 17" stroke="#E44F62" stroke-width="5" stroke-linecap="round"/>
    <path d="M42 13c4-2 10-2 14 0" stroke="#FFFFFF" stroke-width="4" stroke-linecap="round" opacity=".65"/>
  </g>
</svg>
