<svg xmlns="http://www.w3.org/2000/svg" viewBox="0 0 96 96" role="img" aria-labelledby="title">
  <title id="title">寬鬆襪子圖示</title>
  <defs>
    <linearGradient id="sockBlue" x1="25" x2="74" y1="18" y2="82" gradientUnits="userSpaceOnUse">
      <stop stop-color="#B9E8FF"/>
      <stop offset=".62" stop-color="#5DB6E6"/>
      <stop offset="1" stop-color="#347FD1"/>
    </linearGradient>
    <filter id="shadow" x="-15%" y="-15%" width="130%" height="135%">
      <feDropShadow dx="0" dy="5" stdDeviation="3" flood-color="#355E9E" flood-opacity=".25"/>
    </filter>
  </defs>
  <ellipse cx="52" cy="84" rx="30" ry="8" fill="#305B9A" opacity=".18"/>
  <g filter="url(#shadow)">
    <path d="M28 13h32v39c0 6 5 10 12 11l5 1c6 1 10 6 9 12-1 7-7 11-15 10H50c-15 0-25-10-25-25V17c0-2 1-4 3-4Z" fill="url(#sockBlue)"/>
    <path d="M26 13h36v13H26z" fill="#FFF1A6"/>
    <path d="M31 30h25M31 41h25" stroke="#FFFFFF" stroke-width="5" stroke-linecap="round" opacity=".65"/>
    <path d="M51 69c9 4 20 3 29 1" stroke="#1F69B9" stroke-width="7" stroke-linecap="round" opacity=".55"/>
    <path d="M33 15v45c0 10 7 17 18 18" stroke="#FFFFFF" stroke-width="5" stroke-linecap="round" opacity=".5"/>
  </g>
</svg>
