<svg xmlns="http://www.w3.org/2000/svg" viewBox="0 0 96 96" role="img" aria-labelledby="title">
  <title id="title">有傷口的甲溝炎手指</title>
  <rect width="96" height="96" rx="22" fill="#F8E8E1"/>
  <path d="M36 20c0-7 5-12 12-12s12 5 12 12v47c0 14-10 23-23 23H24c-6 0-10-4-10-10s4-10 10-10h9c2 0 3-1 3-3V20Z" fill="#F1B79F"/>
  <path d="M38 22c0-6 4-10 10-10s10 4 10 10v12H38V22Z" fill="#F8D7CA"/>
  <path d="M37 43c8-4 16-4 23 0" stroke="#D86B61" stroke-width="6" stroke-linecap="round"/>
  <path d="M44 48 55 59M56 48 45 60" stroke="#A33D36" stroke-width="6" stroke-linecap="round"/>
  <circle cx="50" cy="54" r="16" fill="#E88578" opacity=".45"/>
  <path d="M30 70h19" stroke="#27474D" stroke-width="5" stroke-linecap="round"/>
  <path d="M61 55c5 0 9 2 12 6" stroke="#A33D36" stroke-width="5" stroke-linecap="round"/>
</svg>
