<svg xmlns="http://www.w3.org/2000/svg" viewBox="0 0 96 96" role="img" aria-labelledby="title">
  <title id="title">有傷口的甲溝炎手指</title>
  <defs>
    <linearGradient id="skin" x1="36" x2="64" y1="8" y2="90" gradientUnits="userSpaceOnUse">
      <stop stop-color="#FFD9BF"/>
      <stop offset=".6" stop-color="#F0A282"/>
      <stop offset="1" stop-color="#CC715A"/>
    </linearGradient>
    <filter id="shadow" x="-15%" y="-15%" width="130%" height="135%">
      <feDropShadow dx="0" dy="5" stdDeviation="3" flood-color="#7F3A3D" flood-opacity=".28"/>
    </filter>
  </defs>
  <ellipse cx="48" cy="85" rx="29" ry="7" fill="#7F3A3D" opacity=".21"/>
  <g filter="url(#shadow)">
    <path d="M34 21c0-8 6-14 14-14s14 6 14 14v45c0 15-10 25-25 25H23c-7 0-12-5-12-12s5-12 12-12h8c2 0 3-1 3-3V21Z" fill="url(#skin)"/>
    <path d="M38 21c0-6 4-10 10-10s10 4 10 10v14H38V21Z" fill="#FFE0CE"/>
    <path d="M33 44c9-5 19-5 28 0" stroke="#C24D55" stroke-width="6" stroke-linecap="round" opacity=".7"/>
    <path d="M43 51c2-7 13-7 16 0 2 7-4 16-8 21-5-5-10-14-8-21Z" fill="#FFF0D8"/>
    <path d="M47 55c3-5 9-2 9 3 0 4-3 8-6 11-3-4-6-9-3-14Z" fill="#D74858"/>
    <path d="M38 61h8M57 61h9" stroke="#8A3F40" stroke-width="5" stroke-linecap="round"/>
    <path d="M69 34c4 4 6 9 7 15M21 37c-4 4-6 9-6 15" stroke="#D74858" stroke-width="5" stroke-linecap="round"/>
    <path d="M42 13c4-2 9-2 13 0" stroke="#FFFFFF" stroke-width="4" stroke-linecap="round" opacity=".65"/>
  </g>
</svg>
